<svg width="384" height="38" viewBox="0 0 384 38" fill="none" xmlns="http://www.w3.org/2000/svg">
<g filter="url(#filter0_d)">
<path d="M118 34H112V28H118V34Z" fill="url(#paint0_linear)"/>
<path d="M106 34H100V28H106V34Z" fill="url(#paint1_linear)"/>
<path d="M94 34H88V28H94V34Z" fill="url(#paint2_linear)"/>
<path d="M82 34H76V28H82V34Z" fill="url(#paint3_linear)"/>
<path d="M70 34H64V28H70V34Z" fill="url(#paint4_linear)"/>
<path d="M46 34H40V28H46V34Z" fill="url(#paint5_linear)"/>
<path d="M22 34H16V28H22V34Z" fill="url(#paint6_linear)"/>
<path d="M58 34H52V28H58V34Z" fill="url(#paint7_linear)"/>
<path d="M34 34H28V28H34V34Z" fill="url(#paint8_linear)"/>
<path d="M10 34H4V28H10V34Z" fill="url(#paint9_linear)"/>
<path d="M130 22H124V16H130V22Z" fill="url(#paint10_linear)"/>
<path d="M118 22H112V16H118V22Z" fill="url(#paint11_linear)"/>
<path d="M106 22H100V16H106V22Z" fill="url(#paint12_linear)"/>
<path d="M94 22H88V16H94V22Z" fill="url(#paint13_linear)"/>
<path d="M82 22H76V16H82V22Z" fill="url(#paint14_linear)"/>
<path d="M58 22H52V16H58V22Z" fill="url(#paint15_linear)"/>
<path d="M34 22H28V16H34V22Z" fill="url(#paint16_linear)"/>
<path d="M70 22H64V16H70V22Z" fill="url(#paint17_linear)"/>
<path d="M46 22H40V16H46V22Z" fill="url(#paint18_linear)"/>
<path d="M22 22H16V16H22V22Z" fill="url(#paint19_linear)"/>
<path d="M238 34H232V28H238V34Z" fill="url(#paint20_linear)"/>
<path d="M226 34H220V28H226V34Z" fill="url(#paint21_linear)"/>
<path d="M214 34H208V28H214V34Z" fill="url(#paint22_linear)"/>
<path d="M202 34H196V28H202V34Z" fill="url(#paint23_linear)"/>
<path d="M190 34H184V28H190V34Z" fill="url(#paint24_linear)"/>
<path d="M166 34H160V28H166V34Z" fill="url(#paint25_linear)"/>
<path d="M142 34H136V28H142V34Z" fill="url(#paint26_linear)"/>
<path d="M178 34H172V28H178V34Z" fill="url(#paint27_linear)"/>
<path d="M154 34H148V28H154V34Z" fill="url(#paint28_linear)"/>
<path d="M130 34H124V28H130V34Z" fill="url(#paint29_linear)"/>
<path d="M250 22H244V16H250V22Z" fill="url(#paint30_linear)"/>
<path d="M238 22H232V16H238V22Z" fill="url(#paint31_linear)"/>
<path d="M226 22H220V16H226V22Z" fill="url(#paint32_linear)"/>
<path d="M214 22H208V16H214V22Z" fill="url(#paint33_linear)"/>
<path d="M202 22H196V16H202V22Z" fill="url(#paint34_linear)"/>
<path d="M178 22H172V16H178V22Z" fill="url(#paint35_linear)"/>
<path d="M154 22H148V16H154V22Z" fill="url(#paint36_linear)"/>
<path d="M190 22H184V16H190V22Z" fill="url(#paint37_linear)"/>
<path d="M166 22H160V16H166V22Z" fill="url(#paint38_linear)"/>
<path d="M142 22H136V16H142V22Z" fill="url(#paint39_linear)"/>
<path d="M214 11H208V5H214V11Z" fill="url(#paint40_linear)"/>
<path d="M142 10H136V4H142V10Z" fill="url(#paint41_linear)"/>
<path d="M130 10H124V4H130V10Z" fill="url(#paint42_linear)"/>
<path d="M118 10H112V4H118V10Z" fill="url(#paint43_linear)"/>
<path d="M106 10H100V4H106V10Z" fill="url(#paint44_linear)"/>
<path d="M94 10H88V4H94V10Z" fill="url(#paint45_linear)"/>
<path d="M70 10H64V4H70V10Z" fill="url(#paint46_linear)"/>
<path d="M46 10H40V4H46V10Z" fill="url(#paint47_linear)"/>
<path d="M82 10H76V4H82V10Z" fill="url(#paint48_linear)"/>
<path d="M58 10H52V4H58V10Z" fill="url(#paint49_linear)"/>
<path d="M34 10H28V4H34V10Z" fill="url(#paint50_linear)"/>
<path d="M190 10H184V4H190V10Z" fill="url(#paint51_linear)"/>
<path d="M166 10H160V4H166V10Z" fill="url(#paint52_linear)"/>
<path d="M202 10H196V4H202V10Z" fill="url(#paint53_linear)"/>
<path d="M178 10H172V4H178V10Z" fill="url(#paint54_linear)"/>
<path d="M154 10H148V4H154V10Z" fill="url(#paint55_linear)"/>
<path d="M274 34H268V28H274V34Z" fill="url(#paint56_linear)"/>
<path d="M262 34H256V28H262V34Z" fill="url(#paint57_linear)"/>
<path d="M250 34H244V28H250V34Z" fill="url(#paint58_linear)"/>
<path d="M238 34H232V28H238V34Z" fill="url(#paint59_linear)"/>
<path d="M226 34H220V28H226V34Z" fill="url(#paint60_linear)"/>
<path d="M202 34H196V28H202V34Z" fill="url(#paint61_linear)"/>
<path d="M178 34H172V28H178V34Z" fill="url(#paint62_linear)"/>
<path d="M214 34H208V28H214V34Z" fill="url(#paint63_linear)"/>
<path d="M190 34H184V28H190V34Z" fill="url(#paint64_linear)"/>
<path d="M166 34H160V28H166V34Z" fill="url(#paint65_linear)"/>
<path d="M286 22H280V16H286V22Z" fill="url(#paint66_linear)"/>
<path d="M274 22H268V16H274V22Z" fill="url(#paint67_linear)"/>
<path d="M262 22H256V16H262V22Z" fill="url(#paint68_linear)"/>
<path d="M250 22H244V16H250V22Z" fill="url(#paint69_linear)"/>
<path d="M238 22H232V16H238V22Z" fill="url(#paint70_linear)"/>
<path d="M214 22H208V16H214V22Z" fill="url(#paint71_linear)"/>
<path d="M190 22H184V16H190V22Z" fill="url(#paint72_linear)"/>
<path d="M226 22H220V16H226V22Z" fill="url(#paint73_linear)"/>
<path d="M202 22H196V16H202V22Z" fill="url(#paint74_linear)"/>
<path d="M178 22H172V16H178V22Z" fill="url(#paint75_linear)"/>
<path d="M394 34H388V28H394V34Z" fill="url(#paint76_linear)"/>
<path d="M382 34H376V28H382V34Z" fill="url(#paint77_linear)"/>
<path d="M370 34H364V28H370V34Z" fill="url(#paint78_linear)"/>
<path d="M358 34H352V28H358V34Z" fill="url(#paint79_linear)"/>
<path d="M346 34H340V28H346V34Z" fill="url(#paint80_linear)"/>
<path d="M322 34H316V28H322V34Z" fill="url(#paint81_linear)"/>
<path d="M298 34H292V28H298V34Z" fill="url(#paint82_linear)"/>
<path d="M334 34H328V28H334V34Z" fill="url(#paint83_linear)"/>
<path d="M310 34H304V28H310V34Z" fill="url(#paint84_linear)"/>
<path d="M286 34H280V28H286V34Z" fill="url(#paint85_linear)"/>
<path d="M406 22H400V16H406V22Z" fill="url(#paint86_linear)"/>
<path d="M394 22H388V16H394V22Z" fill="url(#paint87_linear)"/>
<path d="M382 22H376V16H382V22Z" fill="url(#paint88_linear)"/>
<path d="M370 22H364V16H370V22Z" fill="url(#paint89_linear)"/>
<path d="M358 22H352V16H358V22Z" fill="url(#paint90_linear)"/>
<path d="M334 22H328V16H334V22Z" fill="url(#paint91_linear)"/>
<path d="M310 22H304V16H310V22Z" fill="url(#paint92_linear)"/>
<path d="M346 22H340V16H346V22Z" fill="url(#paint93_linear)"/>
<path d="M322 22H316V16H322V22Z" fill="url(#paint94_linear)"/>
<path d="M298 22H292V16H298V22Z" fill="url(#paint95_linear)"/>
<path d="M370 11H364V5H370V11Z" fill="url(#paint96_linear)"/>
<path d="M298 10H292V4H298V10Z" fill="url(#paint97_linear)"/>
<path d="M286 10H280V4H286V10Z" fill="url(#paint98_linear)"/>
<path d="M274 10H268V4H274V10Z" fill="url(#paint99_linear)"/>
<path d="M262 10H256V4H262V10Z" fill="url(#paint100_linear)"/>
<path d="M250 10H244V4H250V10Z" fill="url(#paint101_linear)"/>
<path d="M226 10H220V4H226V10Z" fill="url(#paint102_linear)"/>
<path d="M202 10H196V4H202V10Z" fill="url(#paint103_linear)"/>
<path d="M238 10H232V4H238V10Z" fill="url(#paint104_linear)"/>
<path d="M214 10H208V4H214V10Z" fill="url(#paint105_linear)"/>
<path d="M190 10H184V4H190V10Z" fill="url(#paint106_linear)"/>
<path d="M346 10H340V4H346V10Z" fill="url(#paint107_linear)"/>
<path d="M322 10H316V4H322V10Z" fill="url(#paint108_linear)"/>
<path d="M358 10H352V4H358V10Z" fill="url(#paint109_linear)"/>
<path d="M334 10H328V4H334V10Z" fill="url(#paint110_linear)"/>
<path d="M310 10H304V4H310V10Z" fill="url(#paint111_linear)"/>
</g>
<defs>
<filter id="filter0_d" x="0" y="0" width="410" height="38" filterUnits="userSpaceOnUse" color-interpolation-filters="sRGB">
<feFlood flood-opacity="0" result="BackgroundImageFix"/>
<feColorMatrix in="SourceAlpha" type="matrix" values="0 0 0 0 0 0 0 0 0 0 0 0 0 0 0 0 0 0 127 0"/>
<feOffset/>
<feGaussianBlur stdDeviation="2"/>
<feColorMatrix type="matrix" values="0 0 0 0 0 0 0 0 0 0 0 0 0 0 0 0 0 0 0.5 0"/>
<feBlend mode="normal" in2="BackgroundImageFix" result="effect1_dropShadow"/>
<feBlend mode="normal" in="SourceGraphic" in2="effect1_dropShadow" result="shape"/>
</filter>
<linearGradient id="paint0_linear" x1="15.5" y1="16.5" x2="207" y2="16" gradientUnits="userSpaceOnUse">
<stop stop-color="#BB1727"/>
<stop offset="0.987034" stop-color="#FD824A"/>
<stop offset="1" stop-color="#5B1922" stop-opacity="0"/>
</linearGradient>
<linearGradient id="paint1_linear" x1="15.5" y1="16.5" x2="207" y2="16" gradientUnits="userSpaceOnUse">
<stop stop-color="#BB1727"/>
<stop offset="0.987034" stop-color="#FD824A"/>
<stop offset="1" stop-color="#5B1922" stop-opacity="0"/>
</linearGradient>
<linearGradient id="paint2_linear" x1="15.5" y1="16.5" x2="207" y2="16" gradientUnits="userSpaceOnUse">
<stop stop-color="#BB1727"/>
<stop offset="0.987034" stop-color="#FD824A"/>
<stop offset="1" stop-color="#5B1922" stop-opacity="0"/>
</linearGradient>
<linearGradient id="paint3_linear" x1="15.5" y1="16.5" x2="207" y2="16" gradientUnits="userSpaceOnUse">
<stop stop-color="#BB1727"/>
<stop offset="0.987034" stop-color="#FD824A"/>
<stop offset="1" stop-color="#5B1922" stop-opacity="0"/>
</linearGradient>
<linearGradient id="paint4_linear" x1="15.5" y1="16.5" x2="207" y2="16" gradientUnits="userSpaceOnUse">
<stop stop-color="#BB1727"/>
<stop offset="0.987034" stop-color="#FD824A"/>
<stop offset="1" stop-color="#5B1922" stop-opacity="0"/>
</linearGradient>
<linearGradient id="paint5_linear" x1="15.5" y1="16.5" x2="207" y2="16" gradientUnits="userSpaceOnUse">
<stop stop-color="#BB1727"/>
<stop offset="0.987034" stop-color="#FD824A"/>
<stop offset="1" stop-color="#5B1922" stop-opacity="0"/>
</linearGradient>
<linearGradient id="paint6_linear" x1="15.5" y1="16.5" x2="207" y2="16" gradientUnits="userSpaceOnUse">
<stop stop-color="#BB1727"/>
<stop offset="0.987034" stop-color="#FD824A"/>
<stop offset="1" stop-color="#5B1922" stop-opacity="0"/>
</linearGradient>
<linearGradient id="paint7_linear" x1="15.5" y1="16.5" x2="207" y2="16" gradientUnits="userSpaceOnUse">
<stop stop-color="#BB1727"/>
<stop offset="0.987034" stop-color="#FD824A"/>
<stop offset="1" stop-color="#5B1922" stop-opacity="0"/>
</linearGradient>
<linearGradient id="paint8_linear" x1="15.5" y1="16.5" x2="207" y2="16" gradientUnits="userSpaceOnUse">
<stop stop-color="#BB1727"/>
<stop offset="0.987034" stop-color="#FD824A"/>
<stop offset="1" stop-color="#5B1922" stop-opacity="0"/>
</linearGradient>
<linearGradient id="paint9_linear" x1="15.5" y1="16.5" x2="207" y2="16" gradientUnits="userSpaceOnUse">
<stop stop-color="#BB1727"/>
<stop offset="0.987034" stop-color="#FD824A"/>
<stop offset="1" stop-color="#5B1922" stop-opacity="0"/>
</linearGradient>
<linearGradient id="paint10_linear" x1="15.5" y1="16.5" x2="207" y2="16" gradientUnits="userSpaceOnUse">
<stop stop-color="#BB1727"/>
<stop offset="0.987034" stop-color="#FD824A"/>
<stop offset="1" stop-color="#5B1922" stop-opacity="0"/>
</linearGradient>
<linearGradient id="paint11_linear" x1="15.5" y1="16.5" x2="207" y2="16" gradientUnits="userSpaceOnUse">
<stop stop-color="#BB1727"/>
<stop offset="0.987034" stop-color="#FD824A"/>
<stop offset="1" stop-color="#5B1922" stop-opacity="0"/>
</linearGradient>
<linearGradient id="paint12_linear" x1="15.5" y1="16.5" x2="207" y2="16" gradientUnits="userSpaceOnUse">
<stop stop-color="#BB1727"/>
<stop offset="0.987034" stop-color="#FD824A"/>
<stop offset="1" stop-color="#5B1922" stop-opacity="0"/>
</linearGradient>
<linearGradient id="paint13_linear" x1="15.5" y1="16.5" x2="207" y2="16" gradientUnits="userSpaceOnUse">
<stop stop-color="#BB1727"/>
<stop offset="0.987034" stop-color="#FD824A"/>
<stop offset="1" stop-color="#5B1922" stop-opacity="0"/>
</linearGradient>
<linearGradient id="paint14_linear" x1="15.5" y1="16.5" x2="207" y2="16" gradientUnits="userSpaceOnUse">
<stop stop-color="#BB1727"/>
<stop offset="0.987034" stop-color="#FD824A"/>
<stop offset="1" stop-color="#5B1922" stop-opacity="0"/>
</linearGradient>
<linearGradient id="paint15_linear" x1="15.5" y1="16.5" x2="207" y2="16" gradientUnits="userSpaceOnUse">
<stop stop-color="#BB1727"/>
<stop offset="0.987034" stop-color="#FD824A"/>
<stop offset="1" stop-color="#5B1922" stop-opacity="0"/>
</linearGradient>
<linearGradient id="paint16_linear" x1="15.5" y1="16.5" x2="207" y2="16" gradientUnits="userSpaceOnUse">
<stop stop-color="#BB1727"/>
<stop offset="0.987034" stop-color="#FD824A"/>
<stop offset="1" stop-color="#5B1922" stop-opacity="0"/>
</linearGradient>
<linearGradient id="paint17_linear" x1="15.5" y1="16.5" x2="207" y2="16" gradientUnits="userSpaceOnUse">
<stop stop-color="#BB1727"/>
<stop offset="0.987034" stop-color="#FD824A"/>
<stop offset="1" stop-color="#5B1922" stop-opacity="0"/>
</linearGradient>
<linearGradient id="paint18_linear" x1="15.5" y1="16.5" x2="207" y2="16" gradientUnits="userSpaceOnUse">
<stop stop-color="#BB1727"/>
<stop offset="0.987034" stop-color="#FD824A"/>
<stop offset="1" stop-color="#5B1922" stop-opacity="0"/>
</linearGradient>
<linearGradient id="paint19_linear" x1="15.5" y1="16.5" x2="207" y2="16" gradientUnits="userSpaceOnUse">
<stop stop-color="#BB1727"/>
<stop offset="0.987034" stop-color="#FD824A"/>
<stop offset="1" stop-color="#5B1922" stop-opacity="0"/>
</linearGradient>
<linearGradient id="paint20_linear" x1="15.5" y1="16.5" x2="207" y2="16" gradientUnits="userSpaceOnUse">
<stop stop-color="#BB1727"/>
<stop offset="0.987034" stop-color="#FD824A"/>
<stop offset="1" stop-color="#5B1922" stop-opacity="0"/>
</linearGradient>
<linearGradient id="paint21_linear" x1="15.5" y1="16.5" x2="207" y2="16" gradientUnits="userSpaceOnUse">
<stop stop-color="#BB1727"/>
<stop offset="0.987034" stop-color="#FD824A"/>
<stop offset="1" stop-color="#5B1922" stop-opacity="0"/>
</linearGradient>
<linearGradient id="paint22_linear" x1="15.5" y1="16.5" x2="207" y2="16" gradientUnits="userSpaceOnUse">
<stop stop-color="#BB1727"/>
<stop offset="0.987034" stop-color="#FD824A"/>
<stop offset="1" stop-color="#5B1922" stop-opacity="0"/>
</linearGradient>
<linearGradient id="paint23_linear" x1="15.5" y1="16.5" x2="207" y2="16" gradientUnits="userSpaceOnUse">
<stop stop-color="#BB1727"/>
<stop offset="0.987034" stop-color="#FD824A"/>
<stop offset="1" stop-color="#5B1922" stop-opacity="0"/>
</linearGradient>
<linearGradient id="paint24_linear" x1="15.5" y1="16.5" x2="207" y2="16" gradientUnits="userSpaceOnUse">
<stop stop-color="#BB1727"/>
<stop offset="0.987034" stop-color="#FD824A"/>
<stop offset="1" stop-color="#5B1922" stop-opacity="0"/>
</linearGradient>
<linearGradient id="paint25_linear" x1="15.5" y1="16.5" x2="207" y2="16" gradientUnits="userSpaceOnUse">
<stop stop-color="#BB1727"/>
<stop offset="0.987034" stop-color="#FD824A"/>
<stop offset="1" stop-color="#5B1922" stop-opacity="0"/>
</linearGradient>
<linearGradient id="paint26_linear" x1="15.5" y1="16.5" x2="207" y2="16" gradientUnits="userSpaceOnUse">
<stop stop-color="#BB1727"/>
<stop offset="0.987034" stop-color="#FD824A"/>
<stop offset="1" stop-color="#5B1922" stop-opacity="0"/>
</linearGradient>
<linearGradient id="paint27_linear" x1="15.5" y1="16.5" x2="207" y2="16" gradientUnits="userSpaceOnUse">
<stop stop-color="#BB1727"/>
<stop offset="0.987034" stop-color="#FD824A"/>
<stop offset="1" stop-color="#5B1922" stop-opacity="0"/>
</linearGradient>
<linearGradient id="paint28_linear" x1="15.5" y1="16.5" x2="207" y2="16" gradientUnits="userSpaceOnUse">
<stop stop-color="#BB1727"/>
<stop offset="0.987034" stop-color="#FD824A"/>
<stop offset="1" stop-color="#5B1922" stop-opacity="0"/>
</linearGradient>
<linearGradient id="paint29_linear" x1="15.5" y1="16.5" x2="207" y2="16" gradientUnits="userSpaceOnUse">
<stop stop-color="#BB1727"/>
<stop offset="0.987034" stop-color="#FD824A"/>
<stop offset="1" stop-color="#5B1922" stop-opacity="0"/>
</linearGradient>
<linearGradient id="paint30_linear" x1="15.5" y1="16.5" x2="207" y2="16" gradientUnits="userSpaceOnUse">
<stop stop-color="#BB1727"/>
<stop offset="0.987034" stop-color="#FD824A"/>
<stop offset="1" stop-color="#5B1922" stop-opacity="0"/>
</linearGradient>
<linearGradient id="paint31_linear" x1="15.5" y1="16.5" x2="207" y2="16" gradientUnits="userSpaceOnUse">
<stop stop-color="#BB1727"/>
<stop offset="0.987034" stop-color="#FD824A"/>
<stop offset="1" stop-color="#5B1922" stop-opacity="0"/>
</linearGradient>
<linearGradient id="paint32_linear" x1="15.5" y1="16.5" x2="207" y2="16" gradientUnits="userSpaceOnUse">
<stop stop-color="#BB1727"/>
<stop offset="0.987034" stop-color="#FD824A"/>
<stop offset="1" stop-color="#5B1922" stop-opacity="0"/>
</linearGradient>
<linearGradient id="paint33_linear" x1="15.5" y1="16.5" x2="207" y2="16" gradientUnits="userSpaceOnUse">
<stop stop-color="#BB1727"/>
<stop offset="0.987034" stop-color="#FD824A"/>
<stop offset="1" stop-color="#5B1922" stop-opacity="0"/>
</linearGradient>
<linearGradient id="paint34_linear" x1="15.5" y1="16.5" x2="207" y2="16" gradientUnits="userSpaceOnUse">
<stop stop-color="#BB1727"/>
<stop offset="0.987034" stop-color="#FD824A"/>
<stop offset="1" stop-color="#5B1922" stop-opacity="0"/>
</linearGradient>
<linearGradient id="paint35_linear" x1="15.5" y1="16.5" x2="207" y2="16" gradientUnits="userSpaceOnUse">
<stop stop-color="#BB1727"/>
<stop offset="0.987034" stop-color="#FD824A"/>
<stop offset="1" stop-color="#5B1922" stop-opacity="0"/>
</linearGradient>
<linearGradient id="paint36_linear" x1="15.5" y1="16.5" x2="207" y2="16" gradientUnits="userSpaceOnUse">
<stop stop-color="#BB1727"/>
<stop offset="0.987034" stop-color="#FD824A"/>
<stop offset="1" stop-color="#5B1922" stop-opacity="0"/>
</linearGradient>
<linearGradient id="paint37_linear" x1="15.5" y1="16.5" x2="207" y2="16" gradientUnits="userSpaceOnUse">
<stop stop-color="#BB1727"/>
<stop offset="0.987034" stop-color="#FD824A"/>
<stop offset="1" stop-color="#5B1922" stop-opacity="0"/>
</linearGradient>
<linearGradient id="paint38_linear" x1="15.5" y1="16.5" x2="207" y2="16" gradientUnits="userSpaceOnUse">
<stop stop-color="#BB1727"/>
<stop offset="0.987034" stop-color="#FD824A"/>
<stop offset="1" stop-color="#5B1922" stop-opacity="0"/>
</linearGradient>
<linearGradient id="paint39_linear" x1="15.5" y1="16.5" x2="207" y2="16" gradientUnits="userSpaceOnUse">
<stop stop-color="#BB1727"/>
<stop offset="0.987034" stop-color="#FD824A"/>
<stop offset="1" stop-color="#5B1922" stop-opacity="0"/>
</linearGradient>
<linearGradient id="paint40_linear" x1="15.5" y1="16.5" x2="207" y2="16" gradientUnits="userSpaceOnUse">
<stop stop-color="#BB1727"/>
<stop offset="0.987034" stop-color="#FD824A"/>
<stop offset="1" stop-color="#5B1922" stop-opacity="0"/>
</linearGradient>
<linearGradient id="paint41_linear" x1="15.5" y1="16.5" x2="207" y2="16" gradientUnits="userSpaceOnUse">
<stop stop-color="#BB1727"/>
<stop offset="0.987034" stop-color="#FD824A"/>
<stop offset="1" stop-color="#5B1922" stop-opacity="0"/>
</linearGradient>
<linearGradient id="paint42_linear" x1="15.5" y1="16.5" x2="207" y2="16" gradientUnits="userSpaceOnUse">
<stop stop-color="#BB1727"/>
<stop offset="0.987034" stop-color="#FD824A"/>
<stop offset="1" stop-color="#5B1922" stop-opacity="0"/>
</linearGradient>
<linearGradient id="paint43_linear" x1="15.5" y1="16.5" x2="207" y2="16" gradientUnits="userSpaceOnUse">
<stop stop-color="#BB1727"/>
<stop offset="0.987034" stop-color="#FD824A"/>
<stop offset="1" stop-color="#5B1922" stop-opacity="0"/>
</linearGradient>
<linearGradient id="paint44_linear" x1="15.5" y1="16.5" x2="207" y2="16" gradientUnits="userSpaceOnUse">
<stop stop-color="#BB1727"/>
<stop offset="0.987034" stop-color="#FD824A"/>
<stop offset="1" stop-color="#5B1922" stop-opacity="0"/>
</linearGradient>
<linearGradient id="paint45_linear" x1="15.5" y1="16.5" x2="207" y2="16" gradientUnits="userSpaceOnUse">
<stop stop-color="#BB1727"/>
<stop offset="0.987034" stop-color="#FD824A"/>
<stop offset="1" stop-color="#5B1922" stop-opacity="0"/>
</linearGradient>
<linearGradient id="paint46_linear" x1="15.5" y1="16.5" x2="207" y2="16" gradientUnits="userSpaceOnUse">
<stop stop-color="#BB1727"/>
<stop offset="0.987034" stop-color="#FD824A"/>
<stop offset="1" stop-color="#5B1922" stop-opacity="0"/>
</linearGradient>
<linearGradient id="paint47_linear" x1="15.5" y1="16.5" x2="207" y2="16" gradientUnits="userSpaceOnUse">
<stop stop-color="#BB1727"/>
<stop offset="0.987034" stop-color="#FD824A"/>
<stop offset="1" stop-color="#5B1922" stop-opacity="0"/>
</linearGradient>
<linearGradient id="paint48_linear" x1="15.5" y1="16.5" x2="207" y2="16" gradientUnits="userSpaceOnUse">
<stop stop-color="#BB1727"/>
<stop offset="0.987034" stop-color="#FD824A"/>
<stop offset="1" stop-color="#5B1922" stop-opacity="0"/>
</linearGradient>
<linearGradient id="paint49_linear" x1="15.5" y1="16.5" x2="207" y2="16" gradientUnits="userSpaceOnUse">
<stop stop-color="#BB1727"/>
<stop offset="0.987034" stop-color="#FD824A"/>
<stop offset="1" stop-color="#5B1922" stop-opacity="0"/>
</linearGradient>
<linearGradient id="paint50_linear" x1="15.5" y1="16.5" x2="207" y2="16" gradientUnits="userSpaceOnUse">
<stop stop-color="#BB1727"/>
<stop offset="0.987034" stop-color="#FD824A"/>
<stop offset="1" stop-color="#5B1922" stop-opacity="0"/>
</linearGradient>
<linearGradient id="paint51_linear" x1="15.5" y1="16.5" x2="207" y2="16" gradientUnits="userSpaceOnUse">
<stop stop-color="#BB1727"/>
<stop offset="0.987034" stop-color="#FD824A"/>
<stop offset="1" stop-color="#5B1922" stop-opacity="0"/>
</linearGradient>
<linearGradient id="paint52_linear" x1="15.5" y1="16.5" x2="207" y2="16" gradientUnits="userSpaceOnUse">
<stop stop-color="#BB1727"/>
<stop offset="0.987034" stop-color="#FD824A"/>
<stop offset="1" stop-color="#5B1922" stop-opacity="0"/>
</linearGradient>
<linearGradient id="paint53_linear" x1="15.5" y1="16.5" x2="207" y2="16" gradientUnits="userSpaceOnUse">
<stop stop-color="#BB1727"/>
<stop offset="0.987034" stop-color="#FD824A"/>
<stop offset="1" stop-color="#5B1922" stop-opacity="0"/>
</linearGradient>
<linearGradient id="paint54_linear" x1="15.5" y1="16.5" x2="207" y2="16" gradientUnits="userSpaceOnUse">
<stop stop-color="#BB1727"/>
<stop offset="0.987034" stop-color="#FD824A"/>
<stop offset="1" stop-color="#5B1922" stop-opacity="0"/>
</linearGradient>
<linearGradient id="paint55_linear" x1="15.5" y1="16.5" x2="207" y2="16" gradientUnits="userSpaceOnUse">
<stop stop-color="#BB1727"/>
<stop offset="0.987034" stop-color="#FD824A"/>
<stop offset="1" stop-color="#5B1922" stop-opacity="0"/>
</linearGradient>
<linearGradient id="paint56_linear" x1="171.5" y1="16.5" x2="363" y2="16" gradientUnits="userSpaceOnUse">
<stop stop-color="#FB8049"/>
<stop offset="0.673754" stop-color="#FD824A"/>
<stop offset="1" stop-color="#5B1922" stop-opacity="0"/>
</linearGradient>
<linearGradient id="paint57_linear" x1="171.5" y1="16.5" x2="363" y2="16" gradientUnits="userSpaceOnUse">
<stop stop-color="#FB8049"/>
<stop offset="0.673754" stop-color="#FD824A"/>
<stop offset="1" stop-color="#5B1922" stop-opacity="0"/>
</linearGradient>
<linearGradient id="paint58_linear" x1="171.5" y1="16.5" x2="363" y2="16" gradientUnits="userSpaceOnUse">
<stop stop-color="#FB8049"/>
<stop offset="0.673754" stop-color="#FD824A"/>
<stop offset="1" stop-color="#5B1922" stop-opacity="0"/>
</linearGradient>
<linearGradient id="paint59_linear" x1="171.5" y1="16.5" x2="363" y2="16" gradientUnits="userSpaceOnUse">
<stop stop-color="#FB8049"/>
<stop offset="0.673754" stop-color="#FD824A"/>
<stop offset="1" stop-color="#5B1922" stop-opacity="0"/>
</linearGradient>
<linearGradient id="paint60_linear" x1="171.5" y1="16.5" x2="363" y2="16" gradientUnits="userSpaceOnUse">
<stop stop-color="#FB8049"/>
<stop offset="0.673754" stop-color="#FD824A"/>
<stop offset="1" stop-color="#5B1922" stop-opacity="0"/>
</linearGradient>
<linearGradient id="paint61_linear" x1="171.5" y1="16.5" x2="363" y2="16" gradientUnits="userSpaceOnUse">
<stop stop-color="#FB8049"/>
<stop offset="0.673754" stop-color="#FD824A"/>
<stop offset="1" stop-color="#5B1922" stop-opacity="0"/>
</linearGradient>
<linearGradient id="paint62_linear" x1="171.5" y1="16.5" x2="363" y2="16" gradientUnits="userSpaceOnUse">
<stop stop-color="#FB8049"/>
<stop offset="0.673754" stop-color="#FD824A"/>
<stop offset="1" stop-color="#5B1922" stop-opacity="0"/>
</linearGradient>
<linearGradient id="paint63_linear" x1="171.5" y1="16.5" x2="363" y2="16" gradientUnits="userSpaceOnUse">
<stop stop-color="#FB8049"/>
<stop offset="0.673754" stop-color="#FD824A"/>
<stop offset="1" stop-color="#5B1922" stop-opacity="0"/>
</linearGradient>
<linearGradient id="paint64_linear" x1="171.5" y1="16.5" x2="363" y2="16" gradientUnits="userSpaceOnUse">
<stop stop-color="#FB8049"/>
<stop offset="0.673754" stop-color="#FD824A"/>
<stop offset="1" stop-color="#5B1922" stop-opacity="0"/>
</linearGradient>
<linearGradient id="paint65_linear" x1="171.5" y1="16.5" x2="363" y2="16" gradientUnits="userSpaceOnUse">
<stop stop-color="#FB8049"/>
<stop offset="0.673754" stop-color="#FD824A"/>
<stop offset="1" stop-color="#5B1922" stop-opacity="0"/>
</linearGradient>
<linearGradient id="paint66_linear" x1="171.5" y1="16.5" x2="363" y2="16" gradientUnits="userSpaceOnUse">
<stop stop-color="#FB8049"/>
<stop offset="0.673754" stop-color="#FD824A"/>
<stop offset="1" stop-color="#5B1922" stop-opacity="0"/>
</linearGradient>
<linearGradient id="paint67_linear" x1="171.5" y1="16.5" x2="363" y2="16" gradientUnits="userSpaceOnUse">
<stop stop-color="#FB8049"/>
<stop offset="0.673754" stop-color="#FD824A"/>
<stop offset="1" stop-color="#5B1922" stop-opacity="0"/>
</linearGradient>
<linearGradient id="paint68_linear" x1="171.5" y1="16.5" x2="363" y2="16" gradientUnits="userSpaceOnUse">
<stop stop-color="#FB8049"/>
<stop offset="0.673754" stop-color="#FD824A"/>
<stop offset="1" stop-color="#5B1922" stop-opacity="0"/>
</linearGradient>
<linearGradient id="paint69_linear" x1="171.5" y1="16.5" x2="363" y2="16" gradientUnits="userSpaceOnUse">
<stop stop-color="#FB8049"/>
<stop offset="0.673754" stop-color="#FD824A"/>
<stop offset="1" stop-color="#5B1922" stop-opacity="0"/>
</linearGradient>
<linearGradient id="paint70_linear" x1="171.5" y1="16.5" x2="363" y2="16" gradientUnits="userSpaceOnUse">
<stop stop-color="#FB8049"/>
<stop offset="0.673754" stop-color="#FD824A"/>
<stop offset="1" stop-color="#5B1922" stop-opacity="0"/>
</linearGradient>
<linearGradient id="paint71_linear" x1="171.5" y1="16.5" x2="363" y2="16" gradientUnits="userSpaceOnUse">
<stop stop-color="#FB8049"/>
<stop offset="0.673754" stop-color="#FD824A"/>
<stop offset="1" stop-color="#5B1922" stop-opacity="0"/>
</linearGradient>
<linearGradient id="paint72_linear" x1="171.5" y1="16.5" x2="363" y2="16" gradientUnits="userSpaceOnUse">
<stop stop-color="#FB8049"/>
<stop offset="0.673754" stop-color="#FD824A"/>
<stop offset="1" stop-color="#5B1922" stop-opacity="0"/>
</linearGradient>
<linearGradient id="paint73_linear" x1="171.5" y1="16.5" x2="363" y2="16" gradientUnits="userSpaceOnUse">
<stop stop-color="#FB8049"/>
<stop offset="0.673754" stop-color="#FD824A"/>
<stop offset="1" stop-color="#5B1922" stop-opacity="0"/>
</linearGradient>
<linearGradient id="paint74_linear" x1="171.5" y1="16.5" x2="363" y2="16" gradientUnits="userSpaceOnUse">
<stop stop-color="#FB8049"/>
<stop offset="0.673754" stop-color="#FD824A"/>
<stop offset="1" stop-color="#5B1922" stop-opacity="0"/>
</linearGradient>
<linearGradient id="paint75_linear" x1="171.5" y1="16.5" x2="363" y2="16" gradientUnits="userSpaceOnUse">
<stop stop-color="#FB8049"/>
<stop offset="0.673754" stop-color="#FD824A"/>
<stop offset="1" stop-color="#5B1922" stop-opacity="0"/>
</linearGradient>
<linearGradient id="paint76_linear" x1="171.5" y1="16.5" x2="363" y2="16" gradientUnits="userSpaceOnUse">
<stop stop-color="#FB8049"/>
<stop offset="0.673754" stop-color="#FD824A"/>
<stop offset="1" stop-color="#5B1922" stop-opacity="0"/>
</linearGradient>
<linearGradient id="paint77_linear" x1="171.5" y1="16.5" x2="363" y2="16" gradientUnits="userSpaceOnUse">
<stop stop-color="#FB8049"/>
<stop offset="0.673754" stop-color="#FD824A"/>
<stop offset="1" stop-color="#5B1922" stop-opacity="0"/>
</linearGradient>
<linearGradient id="paint78_linear" x1="171.5" y1="16.5" x2="363" y2="16" gradientUnits="userSpaceOnUse">
<stop stop-color="#FB8049"/>
<stop offset="0.673754" stop-color="#FD824A"/>
<stop offset="1" stop-color="#5B1922" stop-opacity="0"/>
</linearGradient>
<linearGradient id="paint79_linear" x1="171.5" y1="16.5" x2="363" y2="16" gradientUnits="userSpaceOnUse">
<stop stop-color="#FB8049"/>
<stop offset="0.673754" stop-color="#FD824A"/>
<stop offset="1" stop-color="#5B1922" stop-opacity="0"/>
</linearGradient>
<linearGradient id="paint80_linear" x1="171.5" y1="16.5" x2="363" y2="16" gradientUnits="userSpaceOnUse">
<stop stop-color="#FB8049"/>
<stop offset="0.673754" stop-color="#FD824A"/>
<stop offset="1" stop-color="#5B1922" stop-opacity="0"/>
</linearGradient>
<linearGradient id="paint81_linear" x1="171.5" y1="16.5" x2="363" y2="16" gradientUnits="userSpaceOnUse">
<stop stop-color="#FB8049"/>
<stop offset="0.673754" stop-color="#FD824A"/>
<stop offset="1" stop-color="#5B1922" stop-opacity="0"/>
</linearGradient>
<linearGradient id="paint82_linear" x1="171.5" y1="16.5" x2="363" y2="16" gradientUnits="userSpaceOnUse">
<stop stop-color="#FB8049"/>
<stop offset="0.673754" stop-color="#FD824A"/>
<stop offset="1" stop-color="#5B1922" stop-opacity="0"/>
</linearGradient>
<linearGradient id="paint83_linear" x1="171.5" y1="16.5" x2="363" y2="16" gradientUnits="userSpaceOnUse">
<stop stop-color="#FB8049"/>
<stop offset="0.673754" stop-color="#FD824A"/>
<stop offset="1" stop-color="#5B1922" stop-opacity="0"/>
</linearGradient>
<linearGradient id="paint84_linear" x1="171.5" y1="16.5" x2="363" y2="16" gradientUnits="userSpaceOnUse">
<stop stop-color="#FB8049"/>
<stop offset="0.673754" stop-color="#FD824A"/>
<stop offset="1" stop-color="#5B1922" stop-opacity="0"/>
</linearGradient>
<linearGradient id="paint85_linear" x1="171.5" y1="16.5" x2="363" y2="16" gradientUnits="userSpaceOnUse">
<stop stop-color="#FB8049"/>
<stop offset="0.673754" stop-color="#FD824A"/>
<stop offset="1" stop-color="#5B1922" stop-opacity="0"/>
</linearGradient>
<linearGradient id="paint86_linear" x1="171.5" y1="16.5" x2="363" y2="16" gradientUnits="userSpaceOnUse">
<stop stop-color="#FB8049"/>
<stop offset="0.673754" stop-color="#FD824A"/>
<stop offset="1" stop-color="#5B1922" stop-opacity="0"/>
</linearGradient>
<linearGradient id="paint87_linear" x1="171.5" y1="16.5" x2="363" y2="16" gradientUnits="userSpaceOnUse">
<stop stop-color="#FB8049"/>
<stop offset="0.673754" stop-color="#FD824A"/>
<stop offset="1" stop-color="#5B1922" stop-opacity="0"/>
</linearGradient>
<linearGradient id="paint88_linear" x1="171.5" y1="16.5" x2="363" y2="16" gradientUnits="userSpaceOnUse">
<stop stop-color="#FB8049"/>
<stop offset="0.673754" stop-color="#FD824A"/>
<stop offset="1" stop-color="#5B1922" stop-opacity="0"/>
</linearGradient>
<linearGradient id="paint89_linear" x1="171.5" y1="16.5" x2="363" y2="16" gradientUnits="userSpaceOnUse">
<stop stop-color="#FB8049"/>
<stop offset="0.673754" stop-color="#FD824A"/>
<stop offset="1" stop-color="#5B1922" stop-opacity="0"/>
</linearGradient>
<linearGradient id="paint90_linear" x1="171.5" y1="16.5" x2="363" y2="16" gradientUnits="userSpaceOnUse">
<stop stop-color="#FB8049"/>
<stop offset="0.673754" stop-color="#FD824A"/>
<stop offset="1" stop-color="#5B1922" stop-opacity="0"/>
</linearGradient>
<linearGradient id="paint91_linear" x1="171.5" y1="16.5" x2="363" y2="16" gradientUnits="userSpaceOnUse">
<stop stop-color="#FB8049"/>
<stop offset="0.673754" stop-color="#FD824A"/>
<stop offset="1" stop-color="#5B1922" stop-opacity="0"/>
</linearGradient>
<linearGradient id="paint92_linear" x1="171.5" y1="16.5" x2="363" y2="16" gradientUnits="userSpaceOnUse">
<stop stop-color="#FB8049"/>
<stop offset="0.673754" stop-color="#FD824A"/>
<stop offset="1" stop-color="#5B1922" stop-opacity="0"/>
</linearGradient>
<linearGradient id="paint93_linear" x1="171.5" y1="16.5" x2="363" y2="16" gradientUnits="userSpaceOnUse">
<stop stop-color="#FB8049"/>
<stop offset="0.673754" stop-color="#FD824A"/>
<stop offset="1" stop-color="#5B1922" stop-opacity="0"/>
</linearGradient>
<linearGradient id="paint94_linear" x1="171.5" y1="16.5" x2="363" y2="16" gradientUnits="userSpaceOnUse">
<stop stop-color="#FB8049"/>
<stop offset="0.673754" stop-color="#FD824A"/>
<stop offset="1" stop-color="#5B1922" stop-opacity="0"/>
</linearGradient>
<linearGradient id="paint95_linear" x1="171.5" y1="16.5" x2="363" y2="16" gradientUnits="userSpaceOnUse">
<stop stop-color="#FB8049"/>
<stop offset="0.673754" stop-color="#FD824A"/>
<stop offset="1" stop-color="#5B1922" stop-opacity="0"/>
</linearGradient>
<linearGradient id="paint96_linear" x1="171.5" y1="16.5" x2="363" y2="16" gradientUnits="userSpaceOnUse">
<stop stop-color="#FB8049"/>
<stop offset="0.673754" stop-color="#FD824A"/>
<stop offset="1" stop-color="#5B1922" stop-opacity="0"/>
</linearGradient>
<linearGradient id="paint97_linear" x1="171.5" y1="16.5" x2="363" y2="16" gradientUnits="userSpaceOnUse">
<stop stop-color="#FB8049"/>
<stop offset="0.673754" stop-color="#FD824A"/>
<stop offset="1" stop-color="#5B1922" stop-opacity="0"/>
</linearGradient>
<linearGradient id="paint98_linear" x1="171.5" y1="16.5" x2="363" y2="16" gradientUnits="userSpaceOnUse">
<stop stop-color="#FB8049"/>
<stop offset="0.673754" stop-color="#FD824A"/>
<stop offset="1" stop-color="#5B1922" stop-opacity="0"/>
</linearGradient>
<linearGradient id="paint99_linear" x1="171.5" y1="16.5" x2="363" y2="16" gradientUnits="userSpaceOnUse">
<stop stop-color="#FB8049"/>
<stop offset="0.673754" stop-color="#FD824A"/>
<stop offset="1" stop-color="#5B1922" stop-opacity="0"/>
</linearGradient>
<linearGradient id="paint100_linear" x1="171.5" y1="16.5" x2="363" y2="16" gradientUnits="userSpaceOnUse">
<stop stop-color="#FB8049"/>
<stop offset="0.673754" stop-color="#FD824A"/>
<stop offset="1" stop-color="#5B1922" stop-opacity="0"/>
</linearGradient>
<linearGradient id="paint101_linear" x1="171.5" y1="16.5" x2="363" y2="16" gradientUnits="userSpaceOnUse">
<stop stop-color="#FB8049"/>
<stop offset="0.673754" stop-color="#FD824A"/>
<stop offset="1" stop-color="#5B1922" stop-opacity="0"/>
</linearGradient>
<linearGradient id="paint102_linear" x1="171.5" y1="16.5" x2="363" y2="16" gradientUnits="userSpaceOnUse">
<stop stop-color="#FB8049"/>
<stop offset="0.673754" stop-color="#FD824A"/>
<stop offset="1" stop-color="#5B1922" stop-opacity="0"/>
</linearGradient>
<linearGradient id="paint103_linear" x1="171.5" y1="16.5" x2="363" y2="16" gradientUnits="userSpaceOnUse">
<stop stop-color="#FB8049"/>
<stop offset="0.673754" stop-color="#FD824A"/>
<stop offset="1" stop-color="#5B1922" stop-opacity="0"/>
</linearGradient>
<linearGradient id="paint104_linear" x1="171.5" y1="16.5" x2="363" y2="16" gradientUnits="userSpaceOnUse">
<stop stop-color="#FB8049"/>
<stop offset="0.673754" stop-color="#FD824A"/>
<stop offset="1" stop-color="#5B1922" stop-opacity="0"/>
</linearGradient>
<linearGradient id="paint105_linear" x1="171.5" y1="16.5" x2="363" y2="16" gradientUnits="userSpaceOnUse">
<stop stop-color="#FB8049"/>
<stop offset="0.673754" stop-color="#FD824A"/>
<stop offset="1" stop-color="#5B1922" stop-opacity="0"/>
</linearGradient>
<linearGradient id="paint106_linear" x1="171.5" y1="16.5" x2="363" y2="16" gradientUnits="userSpaceOnUse">
<stop stop-color="#FB8049"/>
<stop offset="0.673754" stop-color="#FD824A"/>
<stop offset="1" stop-color="#5B1922" stop-opacity="0"/>
</linearGradient>
<linearGradient id="paint107_linear" x1="171.5" y1="16.5" x2="363" y2="16" gradientUnits="userSpaceOnUse">
<stop stop-color="#FB8049"/>
<stop offset="0.673754" stop-color="#FD824A"/>
<stop offset="1" stop-color="#5B1922" stop-opacity="0"/>
</linearGradient>
<linearGradient id="paint108_linear" x1="171.5" y1="16.5" x2="363" y2="16" gradientUnits="userSpaceOnUse">
<stop stop-color="#FB8049"/>
<stop offset="0.673754" stop-color="#FD824A"/>
<stop offset="1" stop-color="#5B1922" stop-opacity="0"/>
</linearGradient>
<linearGradient id="paint109_linear" x1="171.5" y1="16.5" x2="363" y2="16" gradientUnits="userSpaceOnUse">
<stop stop-color="#FB8049"/>
<stop offset="0.673754" stop-color="#FD824A"/>
<stop offset="1" stop-color="#5B1922" stop-opacity="0"/>
</linearGradient>
<linearGradient id="paint110_linear" x1="171.5" y1="16.5" x2="363" y2="16" gradientUnits="userSpaceOnUse">
<stop stop-color="#FB8049"/>
<stop offset="0.673754" stop-color="#FD824A"/>
<stop offset="1" stop-color="#5B1922" stop-opacity="0"/>
</linearGradient>
<linearGradient id="paint111_linear" x1="171.5" y1="16.5" x2="363" y2="16" gradientUnits="userSpaceOnUse">
<stop stop-color="#FB8049"/>
<stop offset="0.673754" stop-color="#FD824A"/>
<stop offset="1" stop-color="#5B1922" stop-opacity="0"/>
</linearGradient>
</defs>
</svg>
