<svg width="8" height="8" viewBox="0 0 8 8" fill="none" xmlns="http://www.w3.org/2000/svg">
<path d="M3.83496 4.61719L2.97363 5.44434L1.4834 6.44238L0.827148 5.32129L2.40625 4.47363L3.53418 4.11133C3.41113 4.07031 3.22428 4.01335 2.97363 3.94043C2.72298 3.86751 2.53158 3.81283 2.39941 3.77637L0.799805 2.96973L1.43555 1.8418L2.93945 2.83301L3.82129 3.60547C3.7985 3.48242 3.75521 3.29557 3.69141 3.04492C3.63216 2.78971 3.58659 2.59603 3.55469 2.46387L3.4248 0.652344H4.7373L4.64844 2.44336L4.41602 3.5918C4.50716 3.50521 4.64616 3.37305 4.83301 3.19531C5.02441 3.01302 5.17025 2.8763 5.27051 2.78516L6.77441 1.78711L7.42383 2.90137L5.83789 3.72852L4.7168 4.10449L5.84473 4.43945L7.45801 5.22559L6.79492 6.3877L5.31152 5.40332L4.41602 4.63086L4.68262 5.7793L4.82617 7.57031L3.51367 7.57715L3.5957 5.7793L3.83496 4.61719Z" fill="#FA7645"/>
</svg>
