<svg width="28" height="32" viewBox="0 0 28 32" fill="none" xmlns="http://www.w3.org/2000/svg">
<path d="M14.0001 0L0.143692 7.99997V24L14.0001 32L27.8565 24V7.99997L14.0001 0ZM14.9394 9.48151H23.4118L14.9393 14.3731V9.48151H14.9394ZM13.0608 14.3731L4.58833 9.48151H13.0608V14.3731ZM12.1529 16.0181L7.89118 18.4652L3.64092 11.1036L12.1529 16.0181ZM13.0608 17.6629V27.4189L8.83052 20.092L13.0608 17.6629ZM14.9394 17.6268L19.1756 20.0726L14.9394 27.41V17.6268ZM15.8786 16L24.3511 11.1084L20.1149 18.4458L15.8786 16ZM14.9394 7.60297V2.71143L23.4118 7.60303H14.9394V7.60297ZM13.0608 7.60297H4.58833L13.0608 2.71137V7.60297ZM2.02224 12.0571L6.26217 19.4007L2.02224 21.8353V12.0571ZM7.20138 21.0275L11.4262 28.3449L2.96533 23.4599L7.20138 21.0275ZM20.8024 21.0119L25.0387 23.4577L16.5662 28.3493L20.8024 21.0119ZM21.7417 19.385L25.9779 12.0476V21.8308L21.7417 19.385Z" fill="#F97D49"/>
<path d="M14 0V32L27.8564 24V7.99997L14 0ZM14.9393 2.71143L23.4118 7.60303H14.9393V2.71143ZM14.9393 9.48151H23.4117L14.9392 14.3731V9.48151H14.9393ZM24.3511 11.1084L20.1148 18.4458L15.8786 16L24.3511 11.1084ZM14.9393 17.6268L19.1755 20.0726L14.9393 27.41V17.6268ZM16.5661 28.3493L20.8024 21.0119L25.0386 23.4577L16.5661 28.3493ZM25.9779 21.8308L21.7416 19.385L25.9779 12.0476V21.8308Z" fill="#BB1628"/>
</svg>
